/* XPM */
static char * image[] = {
"48 48 4 1",
".	c #000000",
"+	c #C8C8C8",
"@	c #777777",
"#	c #FFFFFF",
".................@.@.@....@.@.@.................",
"..................@.@.@....@.@.@................",
"....+@.........@.+@@@@@.@@@@@@@@@........@.+....",
"....@++.@....@.@.+@+@++..@@+@+@+.@.@...@.++@....",
".....+++@@.@.@.+.++++@@@.@@@++++.+.@..@@+++.....",
".....@++@+@@.@@+.++++++.@.+++++#.+@@.++@++@.....",
"......+++++++.@@.++@@+@@.@@@@@++@.@.++++++......",
"......@++###+@+@.+@+@@@@.@@@+@@+.@++##+++@......",
".......++++++@@++@@@@@+@+@+@@@@@@+@@++#++.......",
".......+##@++@@+@@@@+@@+@+@@+@@@@+@@+++#+.......",
"......@@+++@@@++@.++@++@+@++@+@@@++@@++#@@......",
".....@.@#++@@#@++@@+@@+@@+@@+@+@@++#@@+#.@@.....",
"....@@@@@+@@#++++++@+@@+@@+@+@++++++@@#@@@@.....",
".....@@++++##+++++@+++@+@+@+@+@+@+++#++@+@+.@...",
"...@@+++@@@@+#+@++@@++++@++++@++++@#@@@@++@+....",
"..@.+@+@@.@+@##++++@@+++@++++@@+++##@+.@@+++.@..",
"...+@+@@@@++@@#+++++@+++@+++@++++##@++@@@@+@+...",
"...@@@.@.#++@@@###+++@++@#+@++++##@@++#.@.@@.@..",
"#+++@++@+@#+++@++##+++@+@+@+++###@+@+#@+@++++++#",
".##++++++@@##+++.+###++@@@+++##+.+++#@@+++@++#+@",
"@.@#+++@++@@##+.@..+##++@++##+..@.+#@@+@+++#+@.@",
".@@@+##+++@@@#+@.@..@##+++##@@..@.+#@@+++##+@@@.",
"@.+@++@++++@@+@@..@..+##++#@..@.@@++@++@+@+++@.@",
".@+++#+@@++@++@++++@@.@+#+@@@@++@+@+@+++@+++++@@",
"...@.@.@.@@#++@+++++@@+@+@+@@+@++@@+#@@@.@.@.@..",
"...@.@.@@.@.#+#@@@+@@+@+.+@@+@+@+@#+@.@.@.@.@...",
"..@.@.@.@.@.+++#####@++@.++@@######+.@.@.@.@.@..",
"@.+@+#+++@@+@@++###+@@+.@.+@@+##+++@+@@@++#+@+.@",
".@@@+#+@@@++@@++++++@++@@@++@++++++@@+@+++#+@@.@",
"@.@@+#+++#++@@##+++@++@@+@@++@@+###@++++@+#++@.@",
".@@@++#++++++@@#++@++++++++++@++++@@+#+++#++@@.@",
".@+#+##+##@#++@#@@++++#+##++#++@@#@+#@####+##+@@",
"...+#+++@+@@++@#++@.##@@.@@##.+++#@+@@@@+++#@...",
"...++@++@@@@@#@#+++@##+++++##@+++#@#@@+@@++++@..",
"..@@++@@+@+@++@##+++##+@+@+##+++##@++@+@+@++@...",
"...@@++@+@++++++##++@##+++##@++##+++++@@@++@@...",
"....@@@@@@@+#+#+@##++##+#+##+++#@+#++@@@@@@@....",
".....@.@@@@+#+##+@@@+#+#####+@@@+#+#+@@@@.@.....",
"......@@.@@@+###++@@@#@@@@@#@@@++###+@.@.@......",
".......@.@@++###+++@@@@.@.@@+@+++###@@@@@.......",
"........@@.+@+#++++++@+@.@@@@+++++#+@@@.........",
"..........@+@++#@++++@+.@.+@+++++#+++.@.........",
"...........++@+++#+++@+.@.++++@#++@@+@..........",
"............@+++@#++++#.@.++++##@+++............",
"...........@.@@+@####++@.@+@####@+@@............",
".............@.@.++##+#.@.####++.@.@............",
"................@@+@+##@.@##+@+@@...............",
".................@@@@@@...@@@@@@................"};
