/* XPM */
static char * image[] = {
"16 16 4 1",
".	c #FFFFFF",
"+	c #777777",
"@	c #000000",
"#	c #C8C8C8",
"...........@....",
"..........@#@...",
".........@#++@..",
"........@#++##@.",
".......@#++##++@",
"......@#++##++@.",
".....@#++##++@..",
"....@#++##++@...",
"...@#++##++@....",
"..@#++##++@.....",
".@#++##++@......",
"@#@+##++@.......",
"@##@#++@........",
"@+##@+@.........",
"@++##@..........",
"@@@@@..........."};
