/* XPM */
static char * alice_xpm[] = {
"96 112 5 1",
" 	c None",
".	c #FFFFFF",
"+	c #C8C8C8",
"@	c #777777",
"#	c #000000",
"................................................................................................",
"................................................................................................",
"................................................................................................",
"........................................................+@+..+++................................",
"........................................................@#@++++++...............................",
".....................................................+++@#@++@+++++.............................",
"...................................................+@@@@@@@++@@++++.............................",
"..................................................+@####@@+++@@@@+++............................",
"...................................................@@@##@++++@@@@@@+............................",
"....................................................+@@@+++++@+++@@+............................",
"...................................................++@@@+++++@++++@+............................",
"..................................................++@@@++++++@++++@@............................",
"..................................................+@@#@+++++@+++++@@+...........................",
".................................................+@@@#@+++++@++++++@+...........................",
".................................................+@+@@+++++@@++++++@@...........................",
".................................................@@+@@+++++@+@@+++@@@...........................",
".................................................@+@@@++++@@+@@+++@@@+..........................",
"................................................+@+@@@+++@@@+@+@@++@@@+.........................",
"................................................+@++@@++@+@@++@#@+++@@+.........................",
"...............................................+@+++@@++++@@++@@@@++@@+.........................",
"...............................................+@+++@@@+++@@++@@@++++@@+........................",
"..............................................+@@+++@@@+++@@+++++++++@@+........................",
"............................................++@@@++++@@@@@@+++++++++@@@+........................",
"...........................................++@@@++++++@@@@@+++++++++@@+.........................",
"..........................................++@+@@+++++++@@@@@++++++++@@+.........................",
"........................................+++++@@+++++++++@++@+++@@+++@@+.........................",
".......................................++@+++@++++++++++@++++++@+@@+++..........................",
"......................................+++++++@++++++++++@@+++@@+++++............................",
".....................................++@+++++@+++++++++++@@+@@+..+++............................",
"....................................+++++++@@@+++++++++++@@@@@@+.+@@+...........................",
"....................................+@++++@@@@@++++++++++@@@##@+.+@@+...........................",
"....................................+@+@@@@@@@@++++++++++@@@@#@+++@@+...........................",
"...................................+@@@@@@++@@@@+++++++++@@@@@+.++@@+++.........................",
".............................++++@+@@@@++++++@@@@@++++++@@@@@@+++@@@++++........................",
".........................+++@@@++++++++++++++@@@@@@@@+++@@@@@+++@@@++++@+.......................",
"......................++++@@++++++++++++++++@@@@@@@@@++@++@@+++@@@@+++++@++.....................",
"...................++++++++++++++++++++@@@@@@@#@@@@@@@@+++++.+@@@+@++++++@++....................",
"................++@+++++++++++++++++@@@@++++@@@@@@@@@+++.....+++..++@++++++@++..................",
"...............++@@++++++++++++++++++++++.++@@#@@@@@+++.....+......++@@+++++@++.................",
".............++@@@@@@+++++++++++......++++++@@@@@@@@+......++........++@+++++@@+................",
".............+@+@+++++...............++++@@@@@@@@@@+......++...........++@+++++++...............",
"............+@++@+.................++@@@@@@@@@@@@@@+.....++..............++@@+++++..............",
"...........++++@+...............++@@@@@@@@#@+@@@@@+.....++.................+++@@+++.............",
"...........+@++@+............++@@@@@@@@##@#@+++@@++...+++....................++@@+++............",
"..........++@@@+...........++@@@@@@@@###@@@@++++++...++@@++....................++@++............",
".........+@@@@+...........+@@@@@@@@@@@@@@@@@++++++++++@@@@@@+...................+@++............",
".......++@@@@@+.........+@@@@@@@@@@@@@@@@@#@+++++++++++@@@@@@@+.................+@+@+...........",
".......+@@@@@@@+.......+@@@@@@@@@@@@@@@@@@@@+++++++.++++@@@@@@@@................+@+@+...........",
"........+@@###@@@++...+@@@@@@@@@@@@@@@@@@@@@++...++..++++@@@@@#@@+.............+@@@@@...........",
"........+@@##@@@@@@@@@@#@@@@@@@@@@@@@@@@@@@+++....+...++++@@@@@#@@++........++@@@@@@@...........",
"........+@@@#@@@@@@#@###########@@@@@@@@@@@++.....++......++@@@@@@@@@@@@@@@@@@@###@@@...........",
".......+@@@@##@@@@@@@@@@@#@@@@@@@@@@@@@@@@@++.....+........++@@@@@@@@@@@@@@@@@#@@#@@@...........",
".......+@@@@##@@@@@@@@@@@@@@@@@@@@@@@@@@@@@+++..............++@@@@@@@@@@@@@@@#@@@##@@+..........",
"......+@@@@@###@@@@@@@@@@@@@@@@@@@@@@@@@@@++..+..............++@@@@@@@@@@@@@@#@@@###@@+.........",
"......+@@@@####@@@@@@@@@@@@@@@@@@@@@@@@@@@+.+.++.......+......++@@@@@@@@@@##@@@@@@@#@@@.........",
".....+@@@@@@###@@@@@@@@@@@@@@@@@@@@@@@@@@@+.++.+................+@@@@@@@@@@@@@@@#@@#@@@@........",
".....@@@@@@@####@@@@@@@@@@@@@@@@@@@@@@@@@@+++...................+@@@@@@@@@@@@@@@#@@#@@@@+.......",
"....+@@@@@@@#@##@@@@@@@@@@@@@@@@@@@@@@@@@++++....................++@@@@@@@@@@@@@#@@##@@@@+......",
"...+@@@@@@@@#@@#@@@@@@@@@@@@@@@@@@@@@@@@@++.......................+@@@@@@@@@@@@@#@@##@@@@@+.....",
"...@@@@@@@@##@@##@@@@@@@@@@@@@@@@@@@@@@@@+........................++@@@@@@@@@@@@@@@@#@@@@@@+....",
"..+@@@@@@@@##@@##@@@@@@@@@@@@@@@@@@@@@@@+.+.+......................++@@@@@@@@@@@@@@@#@@@@@@@+...",
".+@@@@@@@@@##@@##@##@@@@@@@@@@@@@@@@@@@@+..++...+...................++@@@@@@@@@@@@@@#@@@@@@@@...",
".+@##@@@@@@@#@@@##@@@@@@@@@@@@@@@@@@@@@+++...........................++@@@@@@@@@@@@@#@@@@@@@@+..",
".+@###@@@@@@#@@@##@@@@@@@@@@@@@@@@@@@@@++++.....+.....................++@@@@@@@@@@@@@@@@@@@@@...",
"..@##@@@@@@@#@@@##@@@@@@@@@@@@@@@@@@@@@++.++......+....................++@@@@@@@@@@@@#@@@@@@@...",
"..+#@@+@@@@@@@@@@##@@@@@@@@@@@@@@@@@@@+++...+++...++....................++@@@@@@@@@@@#@@@@@@+...",
"..+@#@@+@@@@@@@@@##@@@@@@@@@@@@@@@@@@@++......++++.....................+++@@@@@@@@@@@@@@@@@@....",
"...+@@@+@@@@@@@@@##@@@@@@@@@@@@@@@@@@++++.............................+++@@@@@@@@@@@@@@@@@@+....",
"....+@@@@@@@@@@@@@##@@@@@@@@@@@@@@@@@+.+++..........................+++@@@@@@@@@@@@###@@@@+.....",
".....+@@@@@@@@@@@@##@@@@@@@@@@@@@@@@+..+++.........................+++@@@@@@@@@@@#####@@@+......",
"......+@@@@@@@@@@@@#@@@@@@@@@@@@@@@@+++..++....................++.+++@@@@@@@@@@@#####@@@+.......",
"........+@@@@@@@####@@@@@@@@@@@@@@@+.....+.....................++++@@@@@@@@@@@@#####@@+.........",
"...........+@@@@@@@@@@@@@@@@@@@@@@@+.....................+++..+++@@@@@@@@@@@@@######@+..........",
"............+@@@@++@@@@@@@@@@@@@@@+.......++..............++.++@@@@@@@@@@@@@@######@@...........",
".............@@@+++++@@@@@@@@@@@@++.......++....+.....+...+++@@@@@@@@@@@@@@#######@@............",
".............@@+++++++@@@@@@@@@@@+........+...........+.+++@@@@@@@@@@@@@@@#######@@.............",
".............+@@@@@@@+@@@@@@@@@@@++++...........++.+++++@@@@@@@@@@@@@@@@########@+..............",
".............+@#####@@+@@@@@@@@@@@@@@@+++++++++++++@@@@@@@@@@@@@@@@@@@@#######@@+...............",
".............+@#######@@@@@@@@@@@@@@@@@@@@@@@@@@@@@@@@@@@@@@@@@@@@@@@@####@@@++.................",
"..............@########@@@@@@@@@@@@@@@@@@@@@@@@@@@@@@@@@@@@@@@@@@@@@@##@@+++....................",
"..............+@########@@@@@@@@@@@@@@@@@@@@@@@@@@@@@@@@@@@@@@@@@@@###@+........................",
"...............+@@#######@@@@@@@@@@@@@@@@@@@@@@@@@@@@@@@@@@@@@@@@@##@+..........................",
".................+@@#######@#@@@@@@@@@@@@@@@@@@@@@@@@@@@@@@@@@@@##@@+...........................",
"...................++@@@#####@@@@@@@@@@@@@@@@@@@@@@@@@@@@@@@@@@@@@+.............................",
"......................++@@@##@+@@@@@@@@@@@@@@@@@@@@@@@@@@@@@@@@@+...............................",
".........................+++@@++++@@@@@@@@@@@@@@@@@@@@@@@@@@++..................................",
".............................++...+++@@@@@@@@@@@@@#@@@@@@@+.....................................",
"..............................+......++++@@@@@@@@@@@@++++.......................................",
"..............................++......++..++++++++++............................................",
"...............................+......++..++......++............................................",
"...............................++.....++...+.......+............................................",
"...............................++.....++...++.....++............................................",
"................................++....++....+.....++............................................",
"................................++....++....++.....+............................................",
".................................++....+.....++....++...........................................",
".................................++....+.....++....++...........................................",
"..................................++...+......+....++...........................................",
"...................................+...+......++...++...........................................",
"...................................++..++......+...++...........................................",
"....................................+..++......++..++...........................................",
"....................................++.............++...........................................",
".....................................+.............+++..........................................",
".....................................++++........+++@@+.........................................",
".....................................@@@@........++@@+++++++....................................",
"....................................+@@@@+......+@@#@++@@##@+...................................",
"....................................++++@+......+###########@+..................................",
"...................................+@+.+@.......+@#########@@+..................................",
"...................................@@@@@@........+++++++++++....................................",
"...................................@####@.......................................................",
"...................................@###@+.......................................................",
"...................................+@@@+........................................................",
"................................................................................................"};
